<?xml version="1.0" encoding="utf-8"?>
<!-- Generator: Adobe Illustrator 25.3.0, SVG Export Plug-In . SVG Version: 6.00 Build 0)  -->
<svg version="1.1" id="Layer_1" xmlns="http://www.w3.org/2000/svg" xmlns:xlink="http://www.w3.org/1999/xlink" x="0px" y="0px"
	 viewBox="0 0 902.7 363.8" style="enable-background:new 0 0 902.7 363.8;" xml:space="preserve">
<style type="text/css">
	.st0{fill:#EDEDED;}
	.st1{fill:#444E59;}
	.st2{fill:#BBBFC2;}
	.st3{fill:#28A8E0;}
	.st4{opacity:0.4;fill:#848484;enable-background:new    ;}
	.st5{fill:none;stroke:#444E59;stroke-width:4;stroke-linecap:round;stroke-linejoin:round;stroke-miterlimit:10;}
	.st6{opacity:0.32;fill:#848484;enable-background:new    ;}
	.st7{fill:#AFB1B2;}
	.st8{fill:#AEAEAF;}
	.st9{fill:#FFFFFF;}
	.st10{fill:#6567C3;}
	.st11{opacity:0.2;fill:#444E59;enable-background:new    ;}
	
		.st12{opacity:0.2;fill:none;stroke:#444E59;stroke-width:4;stroke-linecap:round;stroke-linejoin:round;stroke-miterlimit:10;enable-background:new    ;}
	.st13{opacity:0.2;}
	.st14{opacity:9.000000e-02;}
	.st15{fill:#F09F54;}
	.st16{fill:#ED8B3B;}
	.st17{fill:#FF6C37;}
	.st18{fill:#8D91DB;}
	.st19{fill:#BECCD5;stroke:#444E59;stroke-width:4.0004;stroke-linecap:round;stroke-linejoin:round;stroke-miterlimit:10.001;}
	.st20{fill:none;stroke:#444E59;stroke-width:4.0004;stroke-linecap:round;stroke-linejoin:round;stroke-miterlimit:10.001;}
	
		.st21{opacity:0.3;fill:none;stroke:#444E59;stroke-width:4;stroke-linecap:round;stroke-linejoin:round;stroke-miterlimit:10;enable-background:new    ;}
	.st22{opacity:0.62;fill:#FFFFFF;enable-background:new    ;}
	.st23{opacity:0.71;fill:#5D5D5D;enable-background:new    ;}
	.st24{opacity:0.8;fill:#BBBFC2;enable-background:new    ;}
	.st25{opacity:0.3;}
	.st26{fill:none;stroke:#444E59;stroke-width:2;stroke-linejoin:round;}
	.st27{fill:none;stroke:#444E59;stroke-width:2;stroke-linejoin:round;stroke-dasharray:2.858,1.9053;}
	.st28{fill:none;stroke:#444E59;stroke-width:2;stroke-linejoin:round;stroke-dasharray:3.0046,2.003;}
	.st29{fill:none;stroke:#444E59;stroke-linejoin:round;stroke-miterlimit:10;}
	.st30{fill:none;stroke:#444E59;stroke-linecap:round;stroke-linejoin:round;stroke-miterlimit:10;}
	.st31{fill:none;stroke:#444E59;stroke-width:1;stroke-linejoin:round;stroke-miterlimit:9.9998;}
</style>
<path id="XMLID_1313_" class="st0" d="M858.8,347.4H44.7c-5,0-9-4-9-9l0,0c0-5,4-9,9-9h814.2c5,0,9,4,9,9l0,0
	C867.8,343.4,863.8,347.4,858.8,347.4z"/>
<g id="XMLID_24_">
	<rect id="XMLID_6_" x="356.4" y="328.9" class="st1" width="140.8" height="8.4"/>
	<g id="XMLID_104_">
		<path id="XMLID_76_" class="st2" d="M595,274H262.8c-6.6,0-12-5.4-12-12V39.5c0-6.6,5.4-12,12-12H595c6.6,0,12,5.4,12,12v222.4
			C607,268.6,601.7,274,595,274z"/>
		<rect id="XMLID_80_" x="273.3" y="50.1" class="st3" width="312.6" height="181.7"/>
		<path id="XMLID_18_" class="st4" d="M595.8,274h-52.1v-94.8c0-7.6,6.1-13.7,13.7-13.7h38.4L595.8,274L595.8,274z"/>
		<path id="XMLID_107_" class="st4" d="M276.1,182.4h-25.3v74.7c0,9.3,8,16.9,17.4,16.9h29.1v-70
			C297.2,192.3,287.7,182.4,276.1,182.4z"/>
		<path id="XMLID_5_" class="st5" d="M596,274H263.2c-6.6,0-12-5.4-12-12V39.5c0-6.6,5.4-12,12-12H596c6.6,0,12,5.4,12,12v222.4
			C608,268.6,602.6,274,596,274z"/>
		<rect id="XMLID_7_" x="273.8" y="50.1" class="st5" width="311.7" height="181.7"/>
	</g>
	<path id="XMLID_179_" class="st6" d="M524.9,223H353.1c-3.9,0-7-3.2-7-7V93.4c0-3.9,3.2-7,7-7h171.8c3.9,0,7,3.2,7,7v122.5
		C531.9,219.8,528.8,223,524.9,223z"/>
	<path id="XMLID_134_" class="st7" d="M516.9,216.2H345.1c-3.9,0-7-3.2-7-7V86.7c0-3.9,3.2-7,7-7h171.8c3.9,0,7,3.2,7,7v122.5
		C524,213.1,520.8,216.2,516.9,216.2z"/>
	<path id="XMLID_137_" class="st5" d="M516.9,216.2H345.1c-3.9,0-7-3.2-7-7V86.7c0-3.9,3.2-7,7-7h171.8c3.9,0,7,3.2,7,7v122.5
		C524,213.1,520.8,216.2,516.9,216.2z"/>
	<polygon id="XMLID_96_" class="st8" points="471.5,328.9 387.7,328.9 398.1,274 461.1,274 	"/>
	<polygon id="XMLID_99_" class="st6" points="463.9,289.5 461.1,274 398.1,274 395.3,289.5 	"/>
	<polygon id="XMLID_3_" class="st5" points="471.5,328.9 387.7,328.9 398.1,274 461.1,274 	"/>
	<rect id="XMLID_8_" x="356.4" y="328.9" class="st5" width="140.8" height="8.4"/>
	<circle id="XMLID_9_" class="st1" cx="429.1" cy="248.8" r="6.2"/>
	<path id="XMLID_133_" class="st9" d="M502.8,203.6H331c-3.9,0-7-3.2-7-7V74c0-3.9,3.2-7,7-7h171.8c3.9,0,7,3.2,7,7v122.5
		C509.9,200.4,506.7,203.6,502.8,203.6z"/>
	<path id="XMLID_25_" class="st5" d="M502.8,203.6H331c-3.9,0-7-3.2-7-7V74c0-3.9,3.2-7,7-7h171.8c3.9,0,7,3.2,7,7v122.5
		C509.9,200.4,506.7,203.6,502.8,203.6z"/>
	<path id="XMLID_105_" class="st2" d="M509.9,88.1H324V74.3c0-4,3.3-7.4,7.4-7.4H503c3.8,0,6.9,3.1,6.9,6.9V88.1z"/>
	<path id="XMLID_26_" class="st5" d="M509.9,88.1H324V74.3c0-4,3.3-7.4,7.4-7.4H503c3.8,0,6.9,3.1,6.9,6.9V88.1z"/>
	<g id="XMLID_108_">
		<circle id="XMLID_106_" class="st1" cx="341.9" cy="77.6" r="3.3"/>
		<circle id="XMLID_109_" class="st1" cx="352.8" cy="77.6" r="3.3"/>
		<circle id="XMLID_120_" class="st1" cx="363.6" cy="77.6" r="3.3"/>
	</g>
	<path id="XMLID_122_" class="st10" d="M492.4,124.7H340.1c-1.1,0-2-0.9-2-2v-21.3c0-1.1,0.9-2,2-2h152.3c1.1,0,2,0.9,2,2v21.3
		C494.4,123.8,493.5,124.7,492.4,124.7z"/>
	<g id="XMLID_123_">
		<path id="XMLID_124_" class="st11" d="M383.9,151.4H340c-1.1,0-2-0.9-2-2v-11.5c0-1.1,0.9-2,2-2h43.9c1.1,0,2,0.9,2,2v11.5
			C385.9,150.5,385.1,151.4,383.9,151.4z"/>
		<line id="XMLID_125_" class="st12" x1="345.1" y1="162.7" x2="380.3" y2="162.7"/>
		<line id="XMLID_128_" class="st12" x1="345.1" y1="174" x2="380.3" y2="174"/>
	</g>
	<g id="XMLID_127_">
		<path id="XMLID_131_" class="st11" d="M438.9,151.4H395c-1.1,0-2-0.9-2-2v-11.5c0-1.1,0.9-2,2-2h43.9c1.1,0,2,0.9,2,2v11.5
			C440.9,150.5,440,151.4,438.9,151.4z"/>
		<line id="XMLID_130_" class="st12" x1="400" y1="162.7" x2="433.8" y2="162.7"/>
		<line id="XMLID_129_" class="st12" x1="400" y1="174" x2="433.8" y2="174"/>
	</g>
	<g id="XMLID_132_" class="st13">
		<path id="XMLID_135_" class="st1" d="M493.8,175.4h-43.9c-1.1,0-2-0.9-2-2V138c0-1.1,0.9-2,2-2h43.9c1.1,0,2,0.9,2,2v35.4
			C495.8,174.5,494.9,175.4,493.8,175.4z"/>
	</g>
	<g id="XMLID_126_" class="st14">
		<path id="XMLID_136_" class="st1" d="M492.4,186.7h-41.8c-1.6,0-2.8-1.3-2.8-2.8s1.3-2.8,2.8-2.8h41.8c1.6,0,2.8,1.3,2.8,2.8
			S493.9,186.7,492.4,186.7z"/>
	</g>
</g>
<g id="XMLID_23_">
	<g id="XMLID_12_">
		<path id="XMLID_71_" class="st9" d="M178.2,294.5H97.6c-1,0-1.9,0.3-2.6,1l-19.5,17c-1.8,1.6-1.8,4.4,0,5.9L95,335.7
			c0.7,0.6,1.6,1.2,2.6,1.2h80.6c4.6,0,8.4-4.2,8.4-8.8v-25.5C186.5,298.2,182.8,294.5,178.2,294.5z M95.4,320.4c-2.7,0-5-2.2-5-5
			s2.2-5,5-5s5,2.2,5,5S98.2,320.4,95.4,320.4z"/>
		<rect id="XMLID_70_" x="116.1" y="294.5" class="st15" width="23.5" height="42.5"/>
		<rect id="XMLID_69_" x="139.6" y="294.5" class="st16" width="23.5" height="42.5"/>
		<path id="XMLID_58_" class="st17" d="M176.1,337h-13v-42.5h13.4c5.5,0,10.1,4.5,10.1,10.1v22C186.5,332.3,181.8,337,176.1,337z"/>
		<path id="XMLID_117_" class="st4" d="M180.4,296.6c-0.4-0.1-0.8-0.1-1.2-0.1H98.6c-1,0-1.9,0.3-2.6,1l-19.5,17
			c-1.8,1.6-1.8,4.4,0,5.9l12.2,10.7l13.2,3.3c0.6,0.2,1.3,0.2,2,0.2c1.3,0,2.5-0.3,3.7-0.9l71.8-36.6
			C179.7,297,180.1,296.8,180.4,296.6z M96.4,322.4c-2.7,0-5-2.2-5-5s2.2-5,5-5s5,2.2,5,5S99.2,322.4,96.4,322.4z"/>
		<path id="XMLID_29_" class="st5" d="M178.2,294.5H97.6c-1,0-1.9,0.3-2.6,1l-19.5,17c-1.8,1.6-1.8,4.4,0,5.9L95,335.7
			c0.7,0.6,1.6,1.2,2.6,1.2h80.6c4.6,0,8.4-4.2,8.4-8.8v-25.5C186.5,298.2,182.8,294.5,178.2,294.5z M95.4,320.4c-2.7,0-5-2.2-5-5
			s2.2-5,5-5s5,2.2,5,5S98.2,320.4,95.4,320.4z"/>
		<rect id="XMLID_17_" x="116.1" y="294.5" class="st5" width="23.5" height="42.5"/>
		<rect id="XMLID_21_" x="139.6" y="294.5" class="st5" width="23.5" height="42.5"/>
		<path id="XMLID_22_" class="st5" d="M176.1,337h-13v-42.5h13.4c5.5,0,10.1,4.5,10.1,10.1v22C186.5,332.3,181.8,337,176.1,337z"/>
	</g>
	<g id="XMLID_20_">
		<path id="XMLID_74_" class="st9" d="M157.4,254.1l-71.8,36.6c-0.9,0.4-1.5,1.2-1.9,2.1l-9.6,24c-0.9,2.2,0.4,4.7,2.7,5.3l25.1,6.4
			c0.9,0.2,1.9,0.1,2.8-0.3l71.8-36.6c4.1-2.1,5.7-7.1,3.6-11.1l-11.6-22.7C166.4,253.6,161.4,252,157.4,254.1z"/>
		
			<rect id="XMLID_77_" x="131.2" y="264" transform="matrix(0.8908 -0.4545 0.4545 0.8908 -113.9038 96.1112)" class="st18" width="23.5" height="42"/>
		<path id="XMLID_33_" class="st5" d="M157.4,254.1l-71.8,36.6c-0.9,0.4-1.5,1.2-1.9,2.1l-9.6,24c-0.9,2.2,0.4,4.7,2.7,5.3l25.1,6.4
			c0.9,0.2,1.9,0.1,2.8-0.3l71.8-36.6c4.1-2.1,5.7-7.1,3.6-11.1l-11.6-22.7C166.4,253.6,161.4,252,157.4,254.1z"/>
		<circle id="XMLID_34_" class="st1" cx="93.2" cy="310.4" r="5.8"/>
		
			<rect id="XMLID_79_" x="110.2" y="274.7" transform="matrix(0.8908 -0.4545 0.4545 0.8908 -121.0688 87.7311)" class="st19" width="23.5" height="42"/>
		
			<rect id="XMLID_32_" x="110.2" y="274.7" transform="matrix(0.8908 -0.4545 0.4545 0.8908 -121.0688 87.7311)" class="st20" width="23.5" height="42"/>
		
			<rect id="XMLID_31_" x="131.2" y="264" transform="matrix(0.8908 -0.4545 0.4545 0.8908 -113.9038 96.1112)" class="st20" width="23.5" height="42"/>
		<path id="XMLID_30_" class="st10" d="M174.9,292.3l-12,6.1L143.8,261l12-6.1c4.9-2.5,10.9-0.6,13.5,4.4l10,19.6
			C181.8,283.8,179.8,289.8,174.9,292.3z"/>
		<path id="XMLID_78_" class="st5" d="M174.9,292.3l-12,6.1L143.8,261l12-6.1c4.9-2.5,10.9-0.6,13.5,4.4l10,19.6
			C181.8,283.8,179.8,289.8,174.9,292.3z"/>
	</g>
</g>
<g id="XMLID_90_">
	<path id="XMLID_102_" class="st9" d="M276,337.3h-67.3c-5.5,0-10-4.5-10-10V192.4c0-5.5,4.5-10,10-10H276c5.5,0,10,4.5,10,10v134.9
		C286,332.9,281.5,337.3,276,337.3z"/>
	<path id="XMLID_83_" class="st10" d="M287.4,228.9h-88.7v-36.7c0-5.4,4.4-9.8,9.8-9.8H277c5.7,0,10.3,4.7,10.3,10.3v36.2H287.4z"/>
	<path id="XMLID_10_" class="st5" d="M276,337.3h-67.3c-5.5,0-10-4.5-10-10V192.4c0-5.5,4.5-10,10-10H276c5.5,0,10,4.5,10,10v134.9
		C286,332.9,281.5,337.3,276,337.3z"/>
	<path id="XMLID_82_" class="st2" d="M276.1,337.3H209c-5.7,0-10.4-4.7-10.4-10.4v-19.2H286v19.7C286,332.9,281.5,337.3,276.1,337.3
		z"/>
	<path id="XMLID_81_" class="st5" d="M276.3,337.3H209c-5.7,0-10.4-4.7-10.4-10.4v-19.2H286v19.9C286,333,281.6,337.3,276.3,337.3z"
		/>
	<circle id="XMLID_84_" class="st1" cx="243" cy="321.9" r="5"/>
	<line id="XMLID_86_" class="st21" x1="218.4" y1="244.4" x2="267.7" y2="244.4"/>
	<line id="XMLID_87_" class="st21" x1="228.2" y1="259.9" x2="259.2" y2="259.9"/>
	<line id="XMLID_88_" class="st21" x1="218.4" y1="274" x2="267.7" y2="274"/>
	<circle id="XMLID_85_" class="st22" cx="243" cy="209.2" r="11.2"/>
	<path id="XMLID_89_" class="st16" d="M259.2,289.5c0,3.1-2.5,5.6-5.6,5.6h-21.1c-3.1,0-5.6-2.5-5.6-5.6l0,0c0-3.1,2.5-5.6,5.6-5.6
		h21.1C256.7,283.8,259.2,286.3,259.2,289.5L259.2,289.5z"/>
</g>
<g id="XMLID_111_">
	<path id="XMLID_100_" class="st2" d="M797.2,319H554.9V173.4c0-4.3,3.5-7.8,7.8-7.8h226.8c4.2,0,7.6,3.4,7.6,7.6V319H797.2z"/>
	<path id="XMLID_11_" class="st5" d="M797.8,319.3H555.6v-146c0-4.4,3.6-8,8-8h226.2c4.4,0,8,3.6,8,8V319.3z"/>
	<rect id="XMLID_101_" x="569" y="178.2" class="st23" width="215.5" height="128.2"/>
	<path id="XMLID_183_" class="st6" d="M621.7,282h-18.6c-1.1,0-2-0.9-2-2v-63.7c0-1.1,0.9-2,2-2h18.6c1.1,0,2,0.9,2,2v63.8
		C623.7,281.1,622.8,282,621.7,282z"/>
	<path id="XMLID_178_" class="st6" d="M756,294.9H648.6c-2.2,0-4-1.8-4-4v-82.1c0-2.2,1.8-4,4-4H756c2.2,0,4,1.8,4,4v82.1
		C760,293.1,758.3,294.9,756,294.9z"/>
	<rect id="XMLID_103_" x="569" y="178.7" class="st5" width="215.3" height="127.1"/>
	<path id="XMLID_110_" class="st9" d="M824.2,319.3H529.1v9.4c0,4.4,3.6,8,8,8h279.1c4.4,0,8-3.6,8-8L824.2,319.3L824.2,319.3z"/>
	<path id="XMLID_206_" class="st24" d="M540.4,337.3H813c5.5,0,10-4.2,11-9.9H529.3C530.3,333.1,534.9,337.3,540.4,337.3z"/>
	<path id="XMLID_15_" class="st5" d="M824.2,319.3H529.1v9.4c0,4.4,3.6,8,8,8h279.1c4.4,0,8-3.6,8-8L824.2,319.3L824.2,319.3z"/>
	<rect id="XMLID_201_" x="595.8" y="209.2" class="st15" width="22.5" height="22.5"/>
	<rect id="XMLID_138_" x="596.2" y="209.4" class="st5" width="22.5" height="22.5"/>
	<rect id="XMLID_180_" x="596.2" y="209.4" class="st5" width="22.5" height="22.5"/>
	<rect id="XMLID_156_" x="595.8" y="231.7" class="st18" width="22.5" height="22.5"/>
	<rect id="XMLID_140_" x="596.2" y="232" class="st5" width="22.5" height="22.5"/>
	<rect id="XMLID_202_" x="595.8" y="254.2" class="st10" width="22.5" height="22.5"/>
	<rect id="XMLID_143_" x="596.2" y="254.5" class="st5" width="22.5" height="22.5"/>
	<path id="XMLID_115_" class="st9" d="M749.5,288H642c-2.2,0-4-1.8-4-4v-82.1c0-2.2,1.8-4,4-4h107.5c2.2,0,4,1.8,4,4V284
		C753.5,286.3,751.7,288,749.5,288z"/>
	<path id="XMLID_139_" class="st5" d="M749.5,288H642c-2.2,0-4-1.8-4-4v-82.1c0-2.2,1.8-4,4-4h107.5c2.2,0,4,1.8,4,4V284
		C753.5,286.3,751.7,288,749.5,288z"/>
	<g id="XMLID_147_" class="st25">
		<g id="XMLID_205_">
			<polyline id="XMLID_419_" class="st26" points="719.7,264.3 719.7,265.8 718.2,265.8 			"/>
			<line id="XMLID_418_" class="st27" x1="716.3" y1="265.8" x2="674.4" y2="265.8"/>
			<polyline id="XMLID_417_" class="st26" points="673.4,265.8 671.9,265.8 671.9,264.3 			"/>
			<line id="XMLID_416_" class="st28" x1="671.9" y1="262.2" x2="671.9" y2="223.2"/>
			<polyline id="XMLID_415_" class="st26" points="671.9,222.2 671.9,220.7 673.4,220.7 			"/>
			<line id="XMLID_214_" class="st27" x1="675.3" y1="220.7" x2="717.2" y2="220.7"/>
			<polyline id="XMLID_213_" class="st26" points="718.2,220.7 719.7,220.7 719.7,222.2 			"/>
			<line id="XMLID_211_" class="st28" x1="719.7" y1="224.2" x2="719.7" y2="263.3"/>
		</g>
	</g>
	<g id="XMLID_155_">
		<rect id="XMLID_154_" x="668.6" y="217.2" class="st9" width="7.1" height="7.1"/>
		<rect id="XMLID_153_" x="668.3" y="216.9" class="st29" width="7" height="7"/>
	</g>
	<g id="XMLID_157_">
		<rect id="XMLID_159_" x="668.6" y="262.2" class="st9" width="7.1" height="7.1"/>
		<rect id="XMLID_158_" x="668.3" y="262" class="st29" width="7" height="7"/>
	</g>
	<g id="XMLID_162_">
		<rect id="XMLID_166_" x="716.2" y="217.2" class="st9" width="7.1" height="7.1"/>
		<rect id="XMLID_164_" x="716.2" y="216.9" class="st29" width="7" height="7"/>
	</g>
	<g id="XMLID_196_">
		<rect id="XMLID_198_" x="716.2" y="262.2" class="st9" width="7.1" height="7.1"/>
		<rect id="XMLID_197_" x="716.2" y="262" class="st29" width="7" height="7"/>
	</g>
	<g id="XMLID_229_">
		<g id="XMLID_225_">
			<polygon id="XMLID_230_" class="st9" points="607.5,243.6 614.6,258.8 621.5,262.4 626.3,257.6 622.8,250.6 			"/>
			<polygon id="XMLID_227_" class="st29" points="607.5,243.6 614.6,258.8 621.5,262.4 626.3,257.6 622.8,250.6 			"/>
			<circle id="XMLID_224_" class="st1" cx="616.5" cy="252.2" r="1.9"/>
			<line id="XMLID_226_" class="st30" x1="607.5" y1="243.6" x2="615.4" y2="251.5"/>
		</g>
		
			<rect id="XMLID_231_" x="622.3" y="259.1" transform="matrix(0.7071 -0.7071 0.7071 0.7071 -1.7179 519.0368)" class="st9" width="6.8" height="4.9"/>
		
			<rect id="XMLID_228_" x="622.3" y="259.1" transform="matrix(0.7071 -0.7071 0.7071 0.7071 -1.7179 519.0368)" class="st31" width="6.8" height="4.9"/>
	</g>
</g>
</svg>
